<?xml version="1.0" encoding="UTF-8" standalone="no" ?>
<!DOCTYPE svg PUBLIC "-//W3C//DTD SVG 1.1//EN" "http://www.w3.org/Graphics/SVG/1.1/DTD/svg11.dtd">
<svg xmlns="http://www.w3.org/2000/svg" xmlns:xlink="http://www.w3.org/1999/xlink" version="1.1" width="500" height="500" viewBox="0 0 500 500" xml:space="preserve">
<desc>Created with Fabric.js 3.6.3</desc>
<defs>
</defs>
<g transform="matrix(1 0 0 1 250 250)"  >
<rect style="stroke: none; stroke-width: 1; stroke-dasharray: none; stroke-linecap: butt; stroke-dashoffset: 0; stroke-linejoin: miter; stroke-miterlimit: 4; fill: rgb(255,255,255); fill-rule: nonzero; opacity: 1;"  x="-250" y="-250" rx="0" ry="0" width="500" height="500" />
</g>
<g transform="matrix(2.3024999999999998 0 0 2.3024999999999998 250 237)"  >
<g style=""   >
		<g transform="matrix(1.3333333333333335 0 0 1.3333333333333335 0.3314799999999991 41.33143878642268)"  >
<linearGradient id="SVGID_1930_1933" gradientUnits="userSpaceOnUse" gradientTransform="matrix(1 0 0 1 14.18 66.98923617963399)"  x1="0" y1="0" x2="133.33333333333334" y2="133.33333333333334">
<stop offset="0%" style="stop-color:#FF2EE9;"/>
<stop offset="100%" style="stop-color:#52DCFF;"/>
</linearGradient>
<path style="stroke: none; stroke-width: 1; stroke-dasharray: none; stroke-linecap: butt; stroke-dashoffset: 0; stroke-linejoin: miter; stroke-miterlimit: 4; fill: url(#SVGID_1930_1933); fill-rule: nonzero; opacity: 1;"  transform=" translate(-50.24860999999999, -80.998579089817)" d="m 14.18 88.629 c 0 2.2891 1.8633 4.1484 4.1484 4.1484 h 6.4297 c 2.2891 0 4.1484 -1.8633 4.1484 -4.1484 v -0.011718 h 0.89062 c 3.8281 0 7.5859 0.65625 11.172 1.9492 l 9.9297 3.6016 c 1.5586 0.5625 3.1719 0.83984 4.7695 0.83984 c 3.0078 0 5.9727 -0.98047 8.4414 -2.8672 l 20.145 -15.391 c 1.3125 -0.99609 2.0625 -2.5156 2.0625 -4.1641 c 0 -1.0352 -0.30078 -2.0352 -0.86719 -2.8828 c -1.4023 -2.1328 -4.1211 -2.9375 -6.5195 -1.8906 l -15.977 7.625 c -0.078125 -0.73828 -0.30469 -1.4609 -0.66797 -2.1328 c -0.73438 -1.3477 -1.9531 -2.3242 -3.4297 -2.7539 c -1.1289 -0.32422 -2.2812 -0.70312 -3.457 -1.0898 c -4.8242 -1.5781 -10.289 -3.3633 -15.484 -1.9688 c -1.5547 0.41406 -2.9492 1.0547 -4.3008 1.6719 c -0.69531 0.31641 -1.3945 0.63672 -2.1133 0.92578 c -1.3945 0.55078 -3.0625 0.64844 -4.6914 0.72656 c -0.41016 -1.8555 -2.0664 -3.2539 -4.0469 -3.2539 h -6.4297 c -2.2891 0 -4.1484 1.8594 -4.1484 4.1484 z m 20.426 -15.746 c 0.76953 -0.30469 1.5117 -0.64453 2.2539 -0.98437 c 1.2969 -0.59375 2.5195 -1.1523 3.832 -1.5039 c 4.3398 -1.1641 9.1406 0.40625 13.777 1.9258 c 1.2109 0.39453 2.3984 0.78516 3.5586 1.1172 c 0.69922 0.20312 1.2812 0.66797 1.6289 1.3086 c 0.34766 0.63672 0.42578 1.3711 0.22266 2.0664 c -0.003906 0.011719 -0.007812 0.019531 -0.007812 0.027344 c -0.4375 1.4023 -1.8867 2.2031 -3.3281 1.8164 l -10.438 -2.5703 c -0.80469 -0.20313 -1.6172 0.29297 -1.8125 1.0977 c -0.19922 0.80469 0.29297 1.6172 1.0977 1.8125 l 10.406 2.5625 c 0.5 0.13672 1.0039 0.19922 1.4961 0.19922 c 1.9727 0 3.7969 -1.0391 4.832 -2.7227 c 0.18359 -0.011718 0.36719 -0.054687 0.54688 -0.14062 l 17.516 -8.3594 c 1.0078 -0.44141 2.1719 -0.097656 2.7695 0.81641 c 0.24219 0.35938 0.36719 0.78516 0.36719 1.2266 c 0 0.70312 -0.32031 1.3516 -0.88281 1.7773 l -20.148 15.391 c -2.9688 2.2695 -6.8477 2.8633 -10.367 1.5898 l -9.9297 -3.6016 c -3.9141 -1.4102 -8.0156 -2.1289 -12.191 -2.1289 h -0.89063 l -0.003906 -11.781 c 1.8867 -0.09375 3.832 -0.20312 5.6953 -0.94141 z" stroke-linecap="round" />
</g>
		<g transform="matrix(1.3333333333333335 0 0 1.3333333333333335 8.253271280398593 -6.7259399999999925)"  >
<linearGradient id="SVGID_1931_1934" gradientUnits="userSpaceOnUse" gradientTransform="matrix(1 0 0 1 46.60324138197191 36.269999999999996)"  x1="0" y1="0" x2="133.33333333333334" y2="133.33333333333334">
<stop offset="0%" style="stop-color:#FF2EE9;"/>
<stop offset="100%" style="stop-color:#52DCFF;"/>
</linearGradient>
<path style="stroke: none; stroke-width: 1; stroke-dasharray: none; stroke-linecap: butt; stroke-dashoffset: 0; stroke-linejoin: miter; stroke-miterlimit: 4; fill: url(#SVGID_1931_1934); fill-rule: nonzero; opacity: 1;"  transform=" translate(-56.18995346029894, -44.955545)" d="m 59.93 36.27 c -1.3789 0 -2.6953 0.48828 -3.7344 1.3633 c -1.0508 -0.875 -2.3672 -1.3633 -3.7344 -1.3633 c -1.582 0 -3.0664 0.62109 -4.1836 1.75 c -2.2422 2.2773 -2.2305 5.9727 0.023437 8.2266 c 4.793 4.8086 6.3633 6.3164 6.9336 6.8398 c 0.16406 0.32422 0.49219 0.55469 0.88281 0.55469 c 0.023437 0 0.046874 -0.007813 0.066406 -0.011719 c 0.027344 0.003906 0.054687 0.011719 0.082031 0.011719 c 0.39062 0 0.72266 -0.23047 0.88672 -0.55859 c 1.0195 -0.92969 3.6562 -3.5625 6.9336 -6.8359 c 2.2422 -2.2578 2.2578 -5.9453 0.023437 -8.2305 c -1.1133 -1.125 -2.5977 -1.7461 -4.1797 -1.7461 z" stroke-linecap="round" />
</g>
		<g transform="matrix(1.3333333333333335 0 0 1.3333333333333335 8.34572 -20.988282952689694)"  >
<linearGradient id="SVGID_1932_1935" gradientUnits="userSpaceOnUse" gradientTransform="matrix(1 0 0 1 30.300279999999983 5.005575570965462)"  x1="0" y1="0" x2="133.33333333333334" y2="133.33333333333334">
<stop offset="0%" style="stop-color:#FF2EE9;"/>
<stop offset="100%" style="stop-color:#52DCFF;"/>
</linearGradient>
<path style="stroke: none; stroke-width: 1; stroke-dasharray: none; stroke-linecap: butt; stroke-dashoffset: 0; stroke-linejoin: miter; stroke-miterlimit: 4; fill: url(#SVGID_1932_1935); fill-rule: nonzero; opacity: 1;"  transform=" translate(-56.25928999999999, -34.25878778548273)" d="m 39.48 63.512 h 33.418 c 2.8984 0 5.2617 -2.3594 5.2617 -5.2617 v -27.301 c 2.2812 -0.26172 4.0586 -2.1992 4.0586 -4.5508 v -5.6797 c 0 -2.5234 -2.0547 -4.5781 -4.5781 -4.5781 h -4.5781 c 0.57031 -1.0195 0.92188 -2.1641 0.99609 -3.3555 c 0.13281 -2.1406 -0.60938 -4.1992 -2.0391 -5.6445 c -1.5273 -1.5508 -3.7148 -2.3086 -5.9883 -2.1016 c -2.2148 0.20313 -4.2656 1.4844 -5.6211 3.5117 c -0.71875 1.0586 -1.4492 2.1055 -2.1797 3.1523 c -0.65234 0.9375 -1.3125 1.8906 -1.9727 2.8555 c -0.56641 -0.82031 -1.1211 -1.6484 -1.6914 -2.4648 c -0.82031 -1.1797 -1.6406 -2.3555 -2.4414 -3.5391 c -1.375 -2.0273 -3.4297 -3.3086 -5.6289 -3.5117 c -2.2773 -0.21875 -4.4648 0.54688 -5.9883 2.1016 c -1.4297 1.4453 -2.1758 3.5078 -2.0391 5.6484 c 0.074219 1.1914 0.42578 2.3359 0.99609 3.3555 l -4.5859 -0.007813 c -2.5234 0 -4.5781 2.0547 -4.5781 4.5781 v 5.6797 c 0 2.3047 1.7109 4.2188 3.9297 4.5352 v 27.316 c 0 2.8984 2.3555 5.2617 5.25 5.2617 z m 33.418 -3 h -33.418 c -1.2383 0 -2.25 -1.0156 -2.25 -2.2617 v -27.738 h 37.93 v 27.738 c 0 1.2461 -1.0156 2.2617 -2.2617 2.2617 z m -12.207 -47.094 c 0.73828 -1.0586 1.4766 -2.1172 2.2031 -3.1914 c 0.84766 -1.2617 2.1211 -2.082 3.418 -2.2031 c 1.3789 -0.12891 2.6758 0.3125 3.5703 1.2227 c 0.83203 0.83984 1.2617 2.0625 1.1836 3.3555 c -0.085937 1.3828 -0.75781 2.668 -1.8438 3.5234 c -0.007812 0.003906 -0.011718 0.011719 -0.019531 0.019531 l -10.395 -0.003906 c 0.625 -0.91797 1.2578 -1.832 1.8828 -2.7227 z m -17.391 2.7031 c -1.0859 -0.85547 -1.7578 -2.1406 -1.8438 -3.5234 c -0.078125 -1.2891 0.35156 -2.5117 1.1836 -3.3555 c 0.87891 -0.89453 2.2031 -1.3594 3.5742 -1.2188 c 1.3086 0.12109 2.5586 0.92578 3.4258 2.2031 c 0.8125 1.1992 1.6406 2.3867 2.4688 3.5742 c 0.54297 0.77734 1.082 1.5547 1.6172 2.3359 l -10.41 0.003906 c -0.007812 -0.007813 -0.011718 -0.011719 -0.015625 -0.019531 z m -10 10.277 v -5.6797 c 0 -0.87109 0.71094 -1.5781 1.5781 -1.5781 h 42.762 c 0.87109 0 1.5781 0.71094 1.5781 1.5781 v 5.6797 c 0 0.87109 -0.71094 1.5781 -1.5781 1.5781 h -0.71094 c -0.11328 -0.03125 -0.22656 -0.070312 -0.34766 -0.070312 l -40.934 0.003906 c -0.12109 0 -0.23438 0.039063 -0.34375 0.070313 h -0.42578 c -0.87109 0 -1.5781 -0.71094 -1.5781 -1.582 z" stroke-linecap="round" />
</g>
</g>
</g>
<g transform="matrix(1.1179127869680598 0 0 1.2016987419358323 269.1000061035156 263.34275920617415)"  >
<linearGradient id="SVGID_1928" gradientUnits="userSpaceOnUse" gradientTransform="matrix(1 0 0 1 63.24593445720765 82.36500000000004)"  x1="0" y1="0" x2="385.539914226166" y2="347.2704655705924">
<stop offset="0%" style="stop-color:rgb(0,221,255);stop-opacity: 1"/>
<stop offset="100%" style="stop-color:rgb(255,0,212);stop-opacity: 1"/>
</linearGradient>
<path style="stroke: none; stroke-width: 0; stroke-dasharray: none; stroke-linecap: butt; stroke-dashoffset: 0; stroke-linejoin: miter; stroke-miterlimit: 4; fill: url(#SVGID_1928); fill-rule: nonzero; opacity: 0.13;"  transform=" translate(-256.01589157029065, -256.00023278529625)" d="M 248.408 428.144 c 0.139 0.055 0.28 0.106 0.421 0.154 a 19.85 19.85 0 0 0 14.326 0 q 0.24 -0.079 0.474 -0.174 c 67.829 -27.481 120.457 -67.788 152.193 -116.564 c 27.939 -42.938 38.63 -90.771 30.106 -134.688 l -0.012 -0.058 C 434.454 120 393.367 83.292 341.241 83.292 c -27.149 0 -56.5 10.4 -85.181 30.125 c -29.076 -20.609 -57.91 -31.052 -85.782 -31.052 c -52.424 0 -93.337 37.109 -104.225 94.523 C 50.177 259.637 100.405 369.42 248.408 428.144 Z M 81.77 179.886 c 4.675 -24.658 15.5 -45.32 31.3 -59.754 c 15.589 -14.24 35.371 -21.767 57.209 -21.767 c 25.855 0 53.083 10.534 80.931 31.308 a 8 8 0 0 0 9.482 0.062 c 27.44 -19.916 55.293 -30.443 80.55 -30.443 c 21.787 0 41.6 7.5 57.3 21.681 c 15.822 14.3 26.778 34.687 31.684 58.973 c 20.287 104.577 -71.9 192.461 -172.347 233.243 a 11.722 11.722 0 0 1 -1.839 0.447 a 10.042 10.042 0 0 1 -1.96 -0.455 C 114.757 357.81 67.14 256.138 81.77 179.886 Z" stroke-linecap="round" />
</g>
</svg>
